<svg width="99" height="14" viewBox="0 0 99 14" fill="none" xmlns="http://www.w3.org/2000/svg">
<path d="M5.83605 10V3H7.53605V8.5H10.6561V10H5.83605ZM24.7192 10.1C24.1925 10.1 23.7058 10.0133 23.2592 9.84C22.8192 9.66 22.4358 9.41 22.1092 9.09C21.7825 8.76333 21.5292 8.38 21.3492 7.94C21.1758 7.49333 21.0892 7.00333 21.0892 6.47C21.0892 5.95 21.1825 5.47 21.3692 5.03C21.5558 4.59 21.8125 4.21 22.1392 3.89C22.4725 3.56333 22.8625 3.31 23.3092 3.13C23.7625 2.95 24.2558 2.86 24.7892 2.86C25.1225 2.86 25.4492 2.90333 25.7692 2.99C26.0892 3.07667 26.3858 3.20667 26.6592 3.38C26.9392 3.54667 27.1792 3.74667 27.3792 3.98L26.3392 5.17C26.1992 5.02333 26.0492 4.89667 25.8892 4.79C25.7358 4.67667 25.5658 4.59 25.3792 4.53C25.1925 4.47 24.9925 4.44 24.7792 4.44C24.5125 4.44 24.2592 4.49 24.0192 4.59C23.7858 4.68333 23.5792 4.82 23.3992 5C23.2258 5.17333 23.0892 5.38667 22.9892 5.64C22.8892 5.89333 22.8392 6.17667 22.8392 6.49C22.8392 6.79667 22.8892 7.07667 22.9892 7.33C23.0892 7.57667 23.2292 7.79 23.4092 7.97C23.5892 8.15 23.8058 8.28667 24.0592 8.38C24.3192 8.47333 24.6058 8.52 24.9192 8.52C25.1325 8.52 25.3358 8.49 25.5292 8.43C25.7225 8.37 25.8992 8.29 26.0592 8.19C26.2258 8.08333 26.3725 7.96333 26.4992 7.83L27.3192 9.13C27.1525 9.31667 26.9292 9.48333 26.6492 9.63C26.3758 9.77667 26.0692 9.89333 25.7292 9.98C25.3958 10.06 25.0592 10.1 24.7192 10.1ZM27.5925 10L30.3625 3H31.8025L34.5525 10H32.8325L31.5125 6.45C31.4592 6.31 31.4059 6.16 31.3525 6C31.2992 5.84 31.2459 5.67667 31.1925 5.51C31.1392 5.33667 31.0859 5.17 31.0325 5.01C30.9859 4.84333 30.9459 4.69 30.9125 4.55L31.2125 4.54C31.1725 4.70667 31.1259 4.87 31.0725 5.03C31.0259 5.19 30.9759 5.35 30.9225 5.51C30.8759 5.66333 30.8225 5.82 30.7625 5.98C30.7025 6.13333 30.6459 6.29333 30.5925 6.46L29.2725 10H27.5925ZM28.9125 8.66L29.4425 7.38H32.6625L33.1825 8.66H28.9125ZM35.4259 10V3H38.3559C38.8692 3 39.3392 3.08667 39.7659 3.26C40.1926 3.42667 40.5592 3.66667 40.8659 3.98C41.1792 4.29333 41.4192 4.66333 41.5859 5.09C41.7526 5.51667 41.8359 5.98667 41.8359 6.5C41.8359 7.01333 41.7526 7.48667 41.5859 7.92C41.4192 8.34667 41.1792 8.71667 40.8659 9.03C40.5592 9.33667 40.1926 9.57667 39.7659 9.75C39.3392 9.91667 38.8692 10 38.3559 10H35.4259ZM37.1259 8.84L36.8959 8.5H38.3059C38.5859 8.5 38.8359 8.45333 39.0559 8.36C39.2759 8.26 39.4626 8.12333 39.6159 7.95C39.7759 7.77667 39.8992 7.56667 39.9859 7.32C40.0726 7.07333 40.1159 6.8 40.1159 6.5C40.1159 6.2 40.0726 5.92667 39.9859 5.68C39.8992 5.43333 39.7759 5.22333 39.6159 5.05C39.4626 4.87667 39.2759 4.74333 39.0559 4.65C38.8359 4.55 38.5859 4.5 38.3059 4.5H36.8659L37.1259 4.18V8.84ZM43.1505 10V3H48.0305V4.45H44.8005V8.55H48.1305V10H43.1505ZM43.9505 7.13V5.75H47.5805V7.13H43.9505ZM51.9158 10.1C51.4558 10.1 51.0392 10.0467 50.6658 9.94C50.2992 9.82667 49.9725 9.66667 49.6858 9.46C49.3992 9.24667 49.1425 8.99667 48.9158 8.71L49.9458 7.54C50.2792 7.98667 50.6125 8.28667 50.9458 8.44C51.2858 8.59333 51.6358 8.67 51.9958 8.67C52.1758 8.67 52.3392 8.64667 52.4858 8.6C52.6325 8.55333 52.7458 8.48667 52.8258 8.4C52.9058 8.30667 52.9458 8.19333 52.9458 8.06C52.9458 7.96 52.9192 7.87 52.8658 7.79C52.8192 7.71 52.7525 7.64 52.6658 7.58C52.5792 7.52 52.4758 7.46667 52.3558 7.42C52.2358 7.36667 52.1092 7.32333 51.9758 7.29C51.8425 7.25 51.7058 7.21667 51.5658 7.19C51.1792 7.10333 50.8425 6.99667 50.5558 6.87C50.2692 6.74333 50.0292 6.59 49.8358 6.41C49.6492 6.22333 49.5092 6.01333 49.4158 5.78C49.3225 5.54 49.2758 5.27333 49.2758 4.98C49.2758 4.66667 49.3458 4.38 49.4858 4.12C49.6325 3.85333 49.8258 3.62667 50.0658 3.44C50.3125 3.24667 50.5958 3.1 50.9158 3C51.2358 2.89333 51.5692 2.84 51.9158 2.84C52.3758 2.84 52.7692 2.89 53.0958 2.99C53.4292 3.08333 53.7125 3.22 53.9458 3.4C54.1858 3.58 54.3892 3.79667 54.5558 4.05L53.5058 5.06C53.3658 4.88667 53.2125 4.74333 53.0458 4.63C52.8858 4.51667 52.7125 4.43 52.5258 4.37C52.3458 4.31 52.1592 4.28 51.9658 4.28C51.7658 4.28 51.5925 4.30667 51.4458 4.36C51.3058 4.40667 51.1958 4.47667 51.1158 4.57C51.0358 4.65667 50.9958 4.76333 50.9958 4.89C50.9958 5.00333 51.0292 5.1 51.0958 5.18C51.1625 5.26 51.2525 5.33333 51.3658 5.4C51.4792 5.46 51.6092 5.51333 51.7558 5.56C51.9025 5.6 52.0558 5.63333 52.2158 5.66C52.5825 5.73333 52.9125 5.83 53.2058 5.95C53.5058 6.07 53.7625 6.21667 53.9758 6.39C54.1958 6.56333 54.3625 6.77 54.4758 7.01C54.5958 7.24333 54.6558 7.51667 54.6558 7.83C54.6558 8.31667 54.5358 8.73 54.2958 9.07C54.0625 9.40333 53.7392 9.66 53.3258 9.84C52.9192 10.0133 52.4492 10.1 51.9158 10.1ZM59.1137 10.1C58.587 10.1 58.1004 10.0133 57.6537 9.84C57.2137 9.66 56.8304 9.41 56.5037 9.09C56.177 8.76333 55.9237 8.38 55.7437 7.94C55.5704 7.49333 55.4837 7.00333 55.4837 6.47C55.4837 5.95 55.577 5.47 55.7637 5.03C55.9504 4.59 56.207 4.21 56.5337 3.89C56.867 3.56333 57.257 3.31 57.7037 3.13C58.157 2.95 58.6504 2.86 59.1837 2.86C59.517 2.86 59.8437 2.90333 60.1637 2.99C60.4837 3.07667 60.7804 3.20667 61.0537 3.38C61.3337 3.54667 61.5737 3.74667 61.7737 3.98L60.7337 5.17C60.5937 5.02333 60.4437 4.89667 60.2837 4.79C60.1304 4.67667 59.9604 4.59 59.7737 4.53C59.587 4.47 59.387 4.44 59.1737 4.44C58.907 4.44 58.6537 4.49 58.4137 4.59C58.1804 4.68333 57.9737 4.82 57.7937 5C57.6204 5.17333 57.4837 5.38667 57.3837 5.64C57.2837 5.89333 57.2337 6.17667 57.2337 6.49C57.2337 6.79667 57.2837 7.07667 57.3837 7.33C57.4837 7.57667 57.6237 7.79 57.8037 7.97C57.9837 8.15 58.2004 8.28667 58.4537 8.38C58.7137 8.47333 59.0004 8.52 59.3137 8.52C59.527 8.52 59.7304 8.49 59.9237 8.43C60.117 8.37 60.2937 8.29 60.4537 8.19C60.6204 8.08333 60.767 7.96333 60.8937 7.83L61.7137 9.13C61.547 9.31667 61.3237 9.48333 61.0437 9.63C60.7704 9.77667 60.4637 9.89333 60.1237 9.98C59.7904 10.06 59.4537 10.1 59.1137 10.1ZM62.8771 10V3H66.0271C66.4737 3 66.8771 3.09667 67.2371 3.29C67.6037 3.48333 67.8904 3.75 68.0971 4.09C68.3037 4.42333 68.4071 4.80333 68.4071 5.23C68.4071 5.67 68.3037 6.06667 68.0971 6.42C67.8904 6.76667 67.6071 7.04 67.2471 7.24C66.8871 7.44 66.4804 7.54 66.0271 7.54H64.4971V10H62.8771ZM66.7571 10L64.9771 6.84L66.7171 6.59L68.6971 10H66.7571ZM64.4971 6.24H65.8771C66.0504 6.24 66.2004 6.20333 66.3271 6.13C66.4604 6.05 66.5604 5.94 66.6271 5.8C66.7004 5.66 66.7371 5.5 66.7371 5.32C66.7371 5.14 66.6971 4.98333 66.6171 4.85C66.5371 4.71 66.4204 4.60333 66.2671 4.53C66.1204 4.45667 65.9404 4.42 65.7271 4.42H64.4971V6.24ZM69.7586 10V8.57H70.9386V4.43H69.7586V3H73.8286V4.43H72.6386V8.57H73.8286V10H69.7586ZM75.4454 10V3H78.5354C79.0154 3 79.4221 3.07 79.7554 3.21C80.0888 3.34333 80.3388 3.54 80.5054 3.8C80.6788 4.05333 80.7654 4.36 80.7654 4.72C80.7654 5.12 80.6654 5.45667 80.4654 5.73C80.2721 6.00333 79.9888 6.18667 79.6154 6.28L79.5954 6.09C79.9088 6.15667 80.1788 6.27333 80.4054 6.44C80.6388 6.60667 80.8188 6.81333 80.9454 7.06C81.0721 7.3 81.1354 7.57333 81.1354 7.88C81.1354 8.23333 81.0754 8.54333 80.9554 8.81C80.8354 9.07 80.6621 9.29 80.4354 9.47C80.2088 9.65 79.9421 9.78333 79.6354 9.87C79.3354 9.95667 79.0021 10 78.6354 10H75.4454ZM77.0454 8.58H78.5754C78.7621 8.58 78.9188 8.55 79.0454 8.49C79.1788 8.43 79.2821 8.34333 79.3554 8.23C79.4288 8.11 79.4654 7.96667 79.4654 7.8C79.4654 7.64667 79.4254 7.51667 79.3454 7.41C79.2721 7.30333 79.1654 7.22333 79.0254 7.17C78.8854 7.11 78.7188 7.08 78.5254 7.08H77.0454V8.58ZM77.0454 5.81H78.2954C78.4688 5.81 78.6154 5.78333 78.7354 5.73C78.8621 5.67 78.9554 5.59 79.0154 5.49C79.0821 5.38333 79.1154 5.25667 79.1154 5.11C79.1154 4.89667 79.0421 4.73 78.8954 4.61C78.7488 4.48333 78.5288 4.42 78.2354 4.42H77.0454V5.81ZM82.4571 10V3H87.3371V4.45H84.1071V8.55H87.4371V10H82.4571ZM83.2571 7.13V5.75H86.8871V7.13H83.2571ZM88.9025 10V3H92.0525C92.4991 3 92.9025 3.09667 93.2625 3.29C93.6291 3.48333 93.9158 3.75 94.1225 4.09C94.3291 4.42333 94.4325 4.80333 94.4325 5.23C94.4325 5.67 94.3291 6.06667 94.1225 6.42C93.9158 6.76667 93.6325 7.04 93.2725 7.24C92.9125 7.44 92.5058 7.54 92.0525 7.54H90.5225V10H88.9025ZM92.7825 10L91.0025 6.84L92.7425 6.59L94.7225 10H92.7825ZM90.5225 6.24H91.9025C92.0758 6.24 92.2258 6.20333 92.3525 6.13C92.4858 6.05 92.5858 5.94 92.6525 5.8C92.7258 5.66 92.7625 5.5 92.7625 5.32C92.7625 5.14 92.7225 4.98333 92.6425 4.85C92.5625 4.71 92.4458 4.60333 92.2925 4.53C92.1458 4.45667 91.9658 4.42 91.7525 4.42H90.5225V6.24Z" fill="black"/>
<path d="M15.6055 2C18.1491 2 20.2109 4.01791 20.2109 6.50684C20.2108 8.99565 18.149 11.0137 15.6055 11.0137C13.062 11.0136 11.0001 8.99559 11 6.50684C11 4.01797 13.0619 2.00009 15.6055 2ZM15.4414 3.75488C13.9576 3.75488 12.7549 4.95762 12.7549 6.44141C12.755 7.92509 13.9577 9.12793 15.4414 9.12793C16.925 9.12781 18.1278 7.92501 18.1279 6.44141C18.1279 4.9577 16.9251 3.755 15.4414 3.75488Z" fill="#FDD41E"/>
<path d="M15.6056 12.7465C16.399 11.3983 13.6266 11.1459 12.2908 9.62654H18.9312C18.9312 9.62654 14.8123 14.0947 15.6056 12.7465Z" fill="#FDD41E"/>
</svg>
