<svg width="99" height="14" viewBox="0 0 99 14" fill="none" xmlns="http://www.w3.org/2000/svg">
<path d="M6.68078 10V3H8.38078V8.5H11.5008V10H6.68078ZM23.8745 10.1C23.3478 10.1 22.8611 10.0133 22.4145 9.84C21.9745 9.66 21.5911 9.41 21.2645 9.09C20.9378 8.76333 20.6845 8.38 20.5045 7.94C20.3311 7.49333 20.2445 7.00333 20.2445 6.47C20.2445 5.95 20.3378 5.47 20.5245 5.03C20.7111 4.59 20.9678 4.21 21.2945 3.89C21.6278 3.56333 22.0178 3.31 22.4645 3.13C22.9178 2.95 23.4111 2.86 23.9445 2.86C24.2778 2.86 24.6045 2.90333 24.9245 2.99C25.2445 3.07667 25.5411 3.20667 25.8145 3.38C26.0945 3.54667 26.3345 3.74667 26.5345 3.98L25.4945 5.17C25.3545 5.02333 25.2045 4.89667 25.0445 4.79C24.8911 4.67667 24.7211 4.59 24.5345 4.53C24.3478 4.47 24.1478 4.44 23.9345 4.44C23.6678 4.44 23.4145 4.49 23.1745 4.59C22.9411 4.68333 22.7345 4.82 22.5545 5C22.3811 5.17333 22.2445 5.38667 22.1445 5.64C22.0445 5.89333 21.9945 6.17667 21.9945 6.49C21.9945 6.79667 22.0445 7.07667 22.1445 7.33C22.2445 7.57667 22.3845 7.79 22.5645 7.97C22.7445 8.15 22.9611 8.28667 23.2145 8.38C23.4745 8.47333 23.7611 8.52 24.0745 8.52C24.2878 8.52 24.4911 8.49 24.6845 8.43C24.8778 8.37 25.0545 8.29 25.2145 8.19C25.3811 8.08333 25.5278 7.96333 25.6545 7.83L26.4745 9.13C26.3078 9.31667 26.0845 9.48333 25.8045 9.63C25.5311 9.77667 25.2245 9.89333 24.8845 9.98C24.5511 10.06 24.2145 10.1 23.8745 10.1ZM26.7478 10L29.5178 3H30.9578L33.7078 10H31.9878L30.6678 6.45C30.6145 6.31 30.5611 6.16 30.5078 6C30.4545 5.84 30.4011 5.67667 30.3478 5.51C30.2945 5.33667 30.2411 5.17 30.1878 5.01C30.1411 4.84333 30.1011 4.69 30.0678 4.55L30.3678 4.54C30.3278 4.70667 30.2811 4.87 30.2278 5.03C30.1811 5.19 30.1311 5.35 30.0778 5.51C30.0311 5.66333 29.9778 5.82 29.9178 5.98C29.8578 6.13333 29.8011 6.29333 29.7478 6.46L28.4278 10H26.7478ZM28.0678 8.66L28.5978 7.38H31.8178L32.3378 8.66H28.0678ZM34.5812 10V3H37.5112C38.0245 3 38.4945 3.08667 38.9212 3.26C39.3478 3.42667 39.7145 3.66667 40.0212 3.98C40.3345 4.29333 40.5745 4.66333 40.7412 5.09C40.9078 5.51667 40.9912 5.98667 40.9912 6.5C40.9912 7.01333 40.9078 7.48667 40.7412 7.92C40.5745 8.34667 40.3345 8.71667 40.0212 9.03C39.7145 9.33667 39.3478 9.57667 38.9212 9.75C38.4945 9.91667 38.0245 10 37.5112 10H34.5812ZM36.2812 8.84L36.0512 8.5H37.4612C37.7412 8.5 37.9912 8.45333 38.2112 8.36C38.4312 8.26 38.6178 8.12333 38.7712 7.95C38.9312 7.77667 39.0545 7.56667 39.1412 7.32C39.2278 7.07333 39.2712 6.8 39.2712 6.5C39.2712 6.2 39.2278 5.92667 39.1412 5.68C39.0545 5.43333 38.9312 5.22333 38.7712 5.05C38.6178 4.87667 38.4312 4.74333 38.2112 4.65C37.9912 4.55 37.7412 4.5 37.4612 4.5H36.0212L36.2812 4.18V8.84ZM42.3058 10V3H47.1858V4.45H43.9558V8.55H47.2858V10H42.3058ZM43.1058 7.13V5.75H46.7358V7.13H43.1058ZM51.0711 10.1C50.6111 10.1 50.1944 10.0467 49.8211 9.94C49.4544 9.82667 49.1278 9.66667 48.8411 9.46C48.5544 9.24667 48.2978 8.99667 48.0711 8.71L49.1011 7.54C49.4344 7.98667 49.7678 8.28667 50.1011 8.44C50.4411 8.59333 50.7911 8.67 51.1511 8.67C51.3311 8.67 51.4944 8.64667 51.6411 8.6C51.7878 8.55333 51.9011 8.48667 51.9811 8.4C52.0611 8.30667 52.1011 8.19333 52.1011 8.06C52.1011 7.96 52.0744 7.87 52.0211 7.79C51.9744 7.71 51.9078 7.64 51.8211 7.58C51.7344 7.52 51.6311 7.46667 51.5111 7.42C51.3911 7.36667 51.2644 7.32333 51.1311 7.29C50.9978 7.25 50.8611 7.21667 50.7211 7.19C50.3344 7.10333 49.9978 6.99667 49.7111 6.87C49.4244 6.74333 49.1844 6.59 48.9911 6.41C48.8044 6.22333 48.6644 6.01333 48.5711 5.78C48.4778 5.54 48.4311 5.27333 48.4311 4.98C48.4311 4.66667 48.5011 4.38 48.6411 4.12C48.7878 3.85333 48.9811 3.62667 49.2211 3.44C49.4678 3.24667 49.7511 3.1 50.0711 3C50.3911 2.89333 50.7244 2.84 51.0711 2.84C51.5311 2.84 51.9244 2.89 52.2511 2.99C52.5844 3.08333 52.8678 3.22 53.1011 3.4C53.3411 3.58 53.5444 3.79667 53.7111 4.05L52.6611 5.06C52.5211 4.88667 52.3678 4.74333 52.2011 4.63C52.0411 4.51667 51.8678 4.43 51.6811 4.37C51.5011 4.31 51.3144 4.28 51.1211 4.28C50.9211 4.28 50.7478 4.30667 50.6011 4.36C50.4611 4.40667 50.3511 4.47667 50.2711 4.57C50.1911 4.65667 50.1511 4.76333 50.1511 4.89C50.1511 5.00333 50.1844 5.1 50.2511 5.18C50.3178 5.26 50.4078 5.33333 50.5211 5.4C50.6344 5.46 50.7644 5.51333 50.9111 5.56C51.0578 5.6 51.2111 5.63333 51.3711 5.66C51.7378 5.73333 52.0678 5.83 52.3611 5.95C52.6611 6.07 52.9178 6.21667 53.1311 6.39C53.3511 6.56333 53.5178 6.77 53.6311 7.01C53.7511 7.24333 53.8111 7.51667 53.8111 7.83C53.8111 8.31667 53.6911 8.73 53.4511 9.07C53.2178 9.40333 52.8944 9.66 52.4811 9.84C52.0744 10.0133 51.6044 10.1 51.0711 10.1ZM58.269 10.1C57.7423 10.1 57.2557 10.0133 56.809 9.84C56.369 9.66 55.9857 9.41 55.659 9.09C55.3323 8.76333 55.079 8.38 54.899 7.94C54.7257 7.49333 54.639 7.00333 54.639 6.47C54.639 5.95 54.7323 5.47 54.919 5.03C55.1057 4.59 55.3623 4.21 55.689 3.89C56.0223 3.56333 56.4123 3.31 56.859 3.13C57.3123 2.95 57.8057 2.86 58.339 2.86C58.6723 2.86 58.999 2.90333 59.319 2.99C59.639 3.07667 59.9357 3.20667 60.209 3.38C60.489 3.54667 60.729 3.74667 60.929 3.98L59.889 5.17C59.749 5.02333 59.599 4.89667 59.439 4.79C59.2857 4.67667 59.1157 4.59 58.929 4.53C58.7423 4.47 58.5423 4.44 58.329 4.44C58.0623 4.44 57.809 4.49 57.569 4.59C57.3357 4.68333 57.129 4.82 56.949 5C56.7757 5.17333 56.639 5.38667 56.539 5.64C56.439 5.89333 56.389 6.17667 56.389 6.49C56.389 6.79667 56.439 7.07667 56.539 7.33C56.639 7.57667 56.779 7.79 56.959 7.97C57.139 8.15 57.3557 8.28667 57.609 8.38C57.869 8.47333 58.1557 8.52 58.469 8.52C58.6823 8.52 58.8857 8.49 59.079 8.43C59.2723 8.37 59.449 8.29 59.609 8.19C59.7757 8.08333 59.9223 7.96333 60.049 7.83L60.869 9.13C60.7023 9.31667 60.479 9.48333 60.199 9.63C59.9257 9.77667 59.619 9.89333 59.279 9.98C58.9457 10.06 58.609 10.1 58.269 10.1ZM62.0323 10V3H65.1823C65.629 3 66.0323 3.09667 66.3923 3.29C66.759 3.48333 67.0457 3.75 67.2523 4.09C67.459 4.42333 67.5623 4.80333 67.5623 5.23C67.5623 5.67 67.459 6.06667 67.2523 6.42C67.0457 6.76667 66.7623 7.04 66.4023 7.24C66.0423 7.44 65.6357 7.54 65.1823 7.54H63.6523V10H62.0323ZM65.9123 10L64.1323 6.84L65.8723 6.59L67.8523 10H65.9123ZM63.6523 6.24H65.0323C65.2057 6.24 65.3557 6.20333 65.4823 6.13C65.6157 6.05 65.7157 5.94 65.7823 5.8C65.8557 5.66 65.8923 5.5 65.8923 5.32C65.8923 5.14 65.8523 4.98333 65.7723 4.85C65.6923 4.71 65.5757 4.60333 65.4223 4.53C65.2757 4.45667 65.0957 4.42 64.8823 4.42H63.6523V6.24ZM68.9138 10V8.57H70.0938V4.43H68.9138V3H72.9838V4.43H71.7938V8.57H72.9838V10H68.9138ZM74.6007 10V3H77.6907C78.1707 3 78.5774 3.07 78.9107 3.21C79.244 3.34333 79.494 3.54 79.6607 3.8C79.834 4.05333 79.9207 4.36 79.9207 4.72C79.9207 5.12 79.8207 5.45667 79.6207 5.73C79.4274 6.00333 79.144 6.18667 78.7707 6.28L78.7507 6.09C79.064 6.15667 79.334 6.27333 79.5607 6.44C79.794 6.60667 79.974 6.81333 80.1007 7.06C80.2274 7.3 80.2907 7.57333 80.2907 7.88C80.2907 8.23333 80.2307 8.54333 80.1107 8.81C79.9907 9.07 79.8174 9.29 79.5907 9.47C79.364 9.65 79.0974 9.78333 78.7907 9.87C78.4907 9.95667 78.1574 10 77.7907 10H74.6007ZM76.2007 8.58H77.7307C77.9174 8.58 78.074 8.55 78.2007 8.49C78.334 8.43 78.4374 8.34333 78.5107 8.23C78.584 8.11 78.6207 7.96667 78.6207 7.8C78.6207 7.64667 78.5807 7.51667 78.5007 7.41C78.4274 7.30333 78.3207 7.22333 78.1807 7.17C78.0407 7.11 77.874 7.08 77.6807 7.08H76.2007V8.58ZM76.2007 5.81H77.4507C77.624 5.81 77.7707 5.78333 77.8907 5.73C78.0174 5.67 78.1107 5.59 78.1707 5.49C78.2374 5.38333 78.2707 5.25667 78.2707 5.11C78.2707 4.89667 78.1974 4.73 78.0507 4.61C77.904 4.48333 77.684 4.42 77.3907 4.42H76.2007V5.81ZM81.6124 10V3H86.4924V4.45H83.2624V8.55H86.5924V10H81.6124ZM82.4124 7.13V5.75H86.0424V7.13H82.4124ZM88.0577 10V3H91.2077C91.6544 3 92.0577 3.09667 92.4177 3.29C92.7844 3.48333 93.0711 3.75 93.2777 4.09C93.4844 4.42333 93.5877 4.80333 93.5877 5.23C93.5877 5.67 93.4844 6.06667 93.2777 6.42C93.0711 6.76667 92.7877 7.04 92.4277 7.24C92.0677 7.44 91.6611 7.54 91.2077 7.54H89.6777V10H88.0577ZM91.9377 10L90.1577 6.84L91.8977 6.59L93.8777 10H91.9377ZM89.6777 6.24H91.0577C91.2311 6.24 91.3811 6.20333 91.5077 6.13C91.6411 6.05 91.7411 5.94 91.8077 5.8C91.8811 5.66 91.9177 5.5 91.9177 5.32C91.9177 5.14 91.8777 4.98333 91.7977 4.85C91.7177 4.71 91.6011 4.60333 91.4477 4.53C91.3011 4.45667 91.1211 4.42 90.9077 4.42H89.6777V6.24Z" fill="black"/>
<path d="M15.7692 10.1C15.2359 10.1 14.7492 10.01 14.3092 9.83C13.8692 9.65 13.4859 9.39667 13.1592 9.07C12.8326 8.74333 12.5792 8.36 12.3992 7.92C12.2192 7.48 12.1292 6.99667 12.1292 6.47C12.1292 5.94333 12.2192 5.46 12.3992 5.02C12.5792 4.58 12.8326 4.19667 13.1592 3.87C13.4859 3.54333 13.8692 3.29 14.3092 3.11C14.7492 2.93 15.2326 2.84 15.7592 2.84C16.2859 2.84 16.7692 2.93 17.2092 3.11C17.6492 3.29 18.0326 3.54333 18.3592 3.87C18.6859 4.19667 18.9359 4.58 19.1092 5.02C19.2892 5.46 19.3792 5.94333 19.3792 6.47C19.3792 6.99 19.2892 7.47333 19.1092 7.92C18.9359 8.36 18.6859 8.74333 18.3592 9.07C18.0326 9.39667 17.6492 9.65 17.2092 9.83C16.7692 10.01 16.2892 10.1 15.7692 10.1ZM15.7592 8.5C16.0326 8.5 16.2826 8.45 16.5092 8.35C16.7426 8.25 16.9426 8.11 17.1092 7.93C17.2826 7.74333 17.4159 7.52667 17.5092 7.28C17.6026 7.03333 17.6492 6.76333 17.6492 6.47C17.6492 6.17667 17.6026 5.90667 17.5092 5.66C17.4159 5.41333 17.2826 5.2 17.1092 5.02C16.9426 4.83333 16.7426 4.69 16.5092 4.59C16.2826 4.49 16.0326 4.44 15.7592 4.44C15.4859 4.44 15.2326 4.49 14.9992 4.59C14.7726 4.69 14.5726 4.83333 14.3992 5.02C14.2259 5.2 14.0926 5.41333 13.9992 5.66C13.9126 5.90667 13.8692 6.17667 13.8692 6.47C13.8692 6.76333 13.9126 7.03667 13.9992 7.29C14.0926 7.53667 14.2259 7.75 14.3992 7.93C14.5726 8.11 14.7726 8.25 14.9992 8.35C15.2326 8.45 15.4859 8.5 15.7592 8.5Z" fill="#FDD41E"/>
<path d="M15.5 11.5C16 10.5 14 10 13.0938 9H18.4297C18.4297 9 15 12.5 15.5 11.5Z" fill="#FDD41E"/>
</svg>
